<svg xmlns="http://www.w3.org/2000/svg" version="1.1" viewBox="0 0 2048 597" width="1186"
  height="346">
  <path transform="translate(0)" d="m0 0h2048v597h-2048z" fill="#FEFEFE" />
  <path transform="translate(443,164)"
    d="m0 0 479 1 12 3 10 5 8 8 5 8 3 9 1 6v247l-4 11-7 9-7 6-11 5-9 2h-483l-12-3-10-6-5-5-6-8-3-9-1-5v-244l4-15 7-11 8-7 8-4z"
    fill="#0F0E0E" />
  <path transform="translate(1830,194)"
    d="m0 0h49l23 3 18 4 15 5 23 11 17 12 17 17 9 13 8 16 6 15 3 12 3 24v35l-3 22-6 21-7 16-9 15-12 14-7 7-13 10-14 8-16 7-20 6-24 4-19 2h-32l-29-3-19-4-21-7-20-10-14-10-13-12-12-14-10-18-7-17-5-19-2-17v-39l3-22 6-20 9-19 9-13 9-10 7-8 11-8 15-9 17-8 25-7 22-4z"
    fill="#0F0E0E" />
  <path transform="translate(162,63)"
    d="m0 0h42l29 3 27 5 21 6 16 7 20 10 16 10 3 6v66l-4 8-4 2h-53l-8-7-1-2-1-22-1-6-16-8-15-5-14-3-16-2h-32l-19 3-18 6-10 6-7 7-5 9-3 15 1 13 4 11 4 6 8 8 10 6 11 5 30 8 51 12 24 6 21 7 19 8 11 7 11 8 8 7 9 11 8 14 6 16 3 21v30l-3 18-6 18-9 17-11 13-13 12-10 7-12 7-23 9-24 6-28 4-23 1h-18l-29-2-26-4-24-6-25-9-17-8-24-16-6-7v-66l4-6 1-1 61-1 6 5 2 4 1 26 4 2 9 6 15 6 26 6 11 2 12 1h22l19-2 17-4 12-5 10-6 7-7 5-8 3-8 1-6v-17l-2-8-5-10-7-7-13-8-19-7-53-12-34-8-27-9-20-9-14-9-10-8-6-5-9-11-8-13-6-16-3-15-1-7v-29l3-19 6-18 8-15 8-10 10-10 17-12 19-10 21-7 25-5z"
    fill="#0F0E0E" />
  <path transform="translate(1208,194)"
    d="m0 0h45l19 3 20 7 13 7 13 10 10 10 11 16 5 11 5 16 3 23v180l-4 6-5 2-63-1-5-5-1-2-1-154-3-22-4-12-7-11-8-7-12-6-12-3-17-1-18 2-13 4-16 8-11 9-9 11-6 12-3 11-1 13v144l-2 5-4 4h-67l-6-6v-218h-43l-6-5-1-2v-49l6-6h105l6 4 4 6 1 44 9-13 9-11 8-8 13-10 16-8 13-5z"
    fill="#0F0E0E" />
  <path transform="translate(1394,70)"
    d="m0 0h166l6 7 1 6v338h80l6 7 1 46-2 6-4 4h-238l-6-5-1-3v-46l3-6 4-3h79l-1-286-93-1-5-4-2-3v-51l5-5z"
    fill="#0F0E0E" />
  <path transform="translate(1842,258)"
    d="m0 0h28l18 3 14 5 11 7 10 9 9 13 5 12 4 20v27l-3 18-4 13-6 11-9 11-11 8-13 6-13 4-14 2h-26l-13-2-20-6-11-6-11-9-9-12-6-14-3-12-1-8v-31l4-19 5-12 6-9 9-10 9-7 15-7 16-4z"
    fill="#FEFEFE" />
  <path transform="translate(914,201)"
    d="m0 0 5 3 2 3-7 6-14 10-17 12-20 15-18 13-12 9-18 14-19 14-12 9-12 10 6 7 15 13 11 9 15 12 12 9 28 22 11 9 16 12 18 14 13 10 4 3-1 5-3 3-6-2-16-12-33-22-14-10-22-14-75-50-4-2-11 7-10 8-13 9-11 5-9 2h-15l-11-2-12-5-11-7-12-9-13-8-5 2-19 13-17 12-39 26-10 7-16 10-10 7-30 20-18 13-6 1-4-4 2-4 36-28 16-13 14-11 17-14 13-10 22-18 14-12 10-9 4-4-12-11-16-12-17-13-14-10-18-14-18-13-17-12-25-17-10-8-1-4 3-3 7 1 19 12 21 13 18 11 15 10 21 12 17 11 22 14 23 14 17 11 21 13 16 9 9 3h20l14-5 19-12 25-16 20-13 15-10 15-9 23-14 17-11 18-11 33-21 18-12z"
    fill="#FEFEFE" />
</svg>